<svg width="17" height="20" viewBox="0 0 17 20" fill="none" xmlns="http://www.w3.org/2000/svg">
<path d="M6.34847 13.5498C7.78814 13.4338 9.23443 13.4338 10.6741 13.5498C11.4581 13.5955 12.2383 13.6936 13.0099 13.8434C14.6796 14.1815 15.7697 14.7331 16.2369 15.6228C16.5877 16.3171 16.5877 17.1437 16.2369 17.8381C15.7697 18.7278 14.7229 19.3149 12.9926 19.6174C12.2216 19.7729 11.4412 19.874 10.6568 19.9199C9.93009 20 9.20338 20 8.46802 20H7.14438C6.86754 19.9644 6.59935 19.9466 6.33981 19.9466C5.55538 19.9063 4.77477 19.8081 4.00397 19.653C2.33428 19.3327 1.24422 18.7633 0.777055 17.8737C0.596711 17.529 0.501634 17.144 0.500104 16.7527C0.496456 16.3589 0.588657 15.9705 0.768404 15.6228C1.22692 14.7331 2.31698 14.1548 4.00397 13.8434C4.77816 13.6915 5.56144 13.5934 6.34847 13.5498ZM8.50263 0C11.4028 0 13.7539 2.41782 13.7539 5.40035C13.7539 8.38289 11.4028 10.8007 8.50263 10.8007C5.60241 10.8007 3.25131 8.38289 3.25131 5.40035C3.25131 2.41782 5.60241 0 8.50263 0Z" fill="black"/>
</svg>
