<svg width="25" height="25" viewBox="0 0 25 25" fill="none" xmlns="http://www.w3.org/2000/svg">
<path d="M3.125 4.19946L4.19912 3.12534L21.875 20.8013L20.8009 21.8754L3.125 4.19946ZM12.6632 9.37939L15.6207 12.3369C15.5796 11.5659 15.2548 10.8372 14.7088 10.2912C14.1629 9.74526 13.4342 9.42047 12.6632 9.37939ZM12.337 15.6206L9.37949 12.6631C9.42058 13.4341 9.74536 14.1628 10.2914 14.7087C10.8373 15.2547 11.566 15.5795 12.337 15.6206Z" fill="#454545"/>
<path d="M12.5 17.1875C11.7789 17.1875 11.0675 17.0212 10.4211 16.7014C9.77475 16.3816 9.2109 15.917 8.77341 15.3438C8.33593 14.7705 8.0366 14.104 7.89873 13.3962C7.76086 12.6883 7.78817 11.9583 7.97852 11.2627L4.60596 7.88965C3.22852 9.15137 1.91602 10.7979 0.78125 12.5C2.07129 14.6484 3.83594 16.8574 5.67383 18.124C7.78223 19.5762 10.0747 20.3125 12.4883 20.3125C13.8073 20.3134 15.1164 20.0854 16.3574 19.6387L13.7397 17.0215C13.3358 17.1321 12.9188 17.1879 12.5 17.1875ZM12.5 7.8125C13.2211 7.81246 13.9325 7.97881 14.5789 8.2986C15.2252 8.61838 15.7891 9.08298 16.2266 9.65625C16.6641 10.2295 16.9634 10.896 17.1013 11.6038C17.2391 12.3117 17.2118 13.0417 17.0215 13.7373L20.4717 17.1875C21.895 15.9058 23.2095 14.1816 24.2188 12.5C22.9307 10.3794 21.1475 8.17578 19.2783 6.89355C17.1436 5.42969 14.8589 4.6875 12.4883 4.6875C11.1838 4.68935 9.89028 4.92569 8.66943 5.38525L11.2627 7.97852C11.6659 7.86814 12.082 7.81231 12.5 7.8125Z" fill="#454545"/>
</svg>
