<svg width="18" height="17" viewBox="0 0 18 17" fill="none" xmlns="http://www.w3.org/2000/svg">
<path d="M1.616 17C1.15533 17 0.771 16.846 0.463 16.538C0.155 16.23 0.000666667 15.8457 0 15.385V4.615C0 4.155 0.154333 3.771 0.463 3.463C0.771667 3.155 1.15567 3.00067 1.615 3H6V1.615C6 1.155 6.15433 0.770669 6.463 0.462002C6.77167 0.153335 7.156 -0.000664511 7.616 2.15517e-06H10.385C10.845 2.15517e-06 11.2293 0.154002 11.538 0.462002C11.8467 0.770002 12.0007 1.15434 12 1.615V3H16.385C16.845 3 17.229 3.15434 17.537 3.463C17.845 3.77167 17.9993 4.156 18 4.616V15.385C18 15.845 17.8457 16.2293 17.537 16.538C17.2283 16.8467 16.8443 17.0007 16.385 17H1.616ZM7 3H11V1.615C11 1.46167 10.936 1.32067 10.808 1.192C10.68 1.06334 10.539 0.999335 10.385 1H7.615C7.46167 1 7.32067 1.064 7.192 1.192C7.06333 1.32 6.99933 1.461 7 1.615V3ZM8.5 10.5V13C8.5 13.142 8.548 13.2607 8.644 13.356C8.74 13.4513 8.859 13.4993 9.001 13.5C9.143 13.5007 9.26167 13.4527 9.357 13.356C9.45233 13.2593 9.5 13.1407 9.5 13V10.5H12C12.142 10.5 12.2607 10.452 12.356 10.356C12.4513 10.26 12.4993 10.141 12.5 9.999C12.5007 9.857 12.4527 9.73833 12.356 9.643C12.2593 9.54767 12.1407 9.5 12 9.5H9.5V7C9.5 6.858 9.452 6.73934 9.356 6.644C9.26 6.54867 9.141 6.50067 8.999 6.5C8.857 6.49934 8.73833 6.54734 8.643 6.644C8.54767 6.74067 8.5 6.85934 8.5 7V9.5H6C5.858 9.5 5.73933 9.548 5.644 9.644C5.54867 9.74 5.50067 9.859 5.5 10.001C5.49933 10.143 5.54733 10.2617 5.644 10.357C5.74067 10.4523 5.85933 10.5 6 10.5H8.5Z" fill="black"/>
</svg>
