<svg width="24" height="24" viewBox="0 0 24 24" fill="none" xmlns="http://www.w3.org/2000/svg">
<path d="M4.616 21C4.15533 21 3.771 20.846 3.463 20.538C3.155 20.23 3.00067 19.8457 3 19.385V8.615C3 8.155 3.15433 7.771 3.463 7.463C3.77167 7.155 4.15567 7.00067 4.615 7H9V5.615C9 5.155 9.15433 4.77067 9.463 4.462C9.77167 4.15334 10.156 3.99934 10.616 4H13.385C13.845 4 14.2293 4.154 14.538 4.462C14.8467 4.77 15.0007 5.15434 15 5.615V7H19.385C19.845 7 20.229 7.15434 20.537 7.463C20.845 7.77167 20.9993 8.156 21 8.616V19.385C21 19.845 20.8457 20.2293 20.537 20.538C20.2283 20.8467 19.8443 21.0007 19.385 21H4.616ZM10 7H14V5.615C14 5.46167 13.936 5.32067 13.808 5.192C13.68 5.06334 13.539 4.99934 13.385 5H10.615C10.4617 5 10.3207 5.064 10.192 5.192C10.0633 5.32 9.99933 5.461 10 5.615V7ZM11.5 14.5V17C11.5 17.142 11.548 17.2607 11.644 17.356C11.74 17.4513 11.859 17.4993 12.001 17.5C12.143 17.5007 12.2617 17.4527 12.357 17.356C12.4523 17.2593 12.5 17.1407 12.5 17V14.5H15C15.142 14.5 15.2607 14.452 15.356 14.356C15.4513 14.26 15.4993 14.141 15.5 13.999C15.5007 13.857 15.4527 13.7383 15.356 13.643C15.2593 13.5477 15.1407 13.5 15 13.5H12.5V11C12.5 10.858 12.452 10.7393 12.356 10.644C12.26 10.5487 12.141 10.5007 11.999 10.5C11.857 10.4993 11.7383 10.5473 11.643 10.644C11.5477 10.7407 11.5 10.8593 11.5 11V13.5H9C8.858 13.5 8.73933 13.548 8.644 13.644C8.54867 13.74 8.50067 13.859 8.5 14.001C8.49933 14.143 8.54733 14.2617 8.644 14.357C8.74067 14.4523 8.85933 14.5 9 14.5H11.5Z" fill="#4B4B4B"/>
</svg>
