<svg width="19" height="23" viewBox="0 0 19 23" fill="none" xmlns="http://www.w3.org/2000/svg">
<path fill-rule="evenodd" clip-rule="evenodd" d="M1.34838 5.27753V12.054C1.34838 17.1137 5.81555 19.5461 9.40358 21.501L9.49933 21.5524L9.59641 21.501C13.1844 19.5461 17.6516 17.1137 17.6516 12.054V5.27753L9.49934 1.42457L1.34838 5.27753ZM9.49933 23C9.38875 23 9.27819 22.9716 9.17707 22.9175L8.76041 22.6902C5.06317 20.6758 0 17.9187 0 12.054V4.84865C0 4.5862 0.151025 4.3481 0.386983 4.23581L9.21347 0.0649352C9.39415 -0.0216451 9.60585 -0.0216451 9.78653 0.0649352L18.613 4.23583C18.849 4.34812 19 4.58623 19 4.84868V12.054C19 17.9187 13.9355 20.6758 10.2396 22.6902L9.82293 22.9175C9.72181 22.9716 9.61125 23 9.49933 23ZM15.0766 16.44H11.3349L10.2413 15.3442V14.3403H8.84712V12.9415H7.84796L7.14951 12.2407C7.12659 12.2421 7.10366 12.2421 7.08074 12.2421C4.97862 12.2421 3.26887 10.5266 3.26887 8.41751C3.26887 6.30841 4.97862 4.59162 7.08074 4.59162C9.18286 4.59162 10.8926 6.30841 10.8926 8.41751C10.8926 8.44051 10.8926 8.46351 10.8913 8.48515L15.0766 12.6858L15.0766 16.44ZM11.8931 15.0871H13.7282V13.2459L9.4849 8.98571L9.53209 8.53927C9.54423 7.05518 8.43856 5.94449 7.08074 5.94449C5.72292 5.94449 4.61725 7.05518 4.61725 8.41751C4.61725 9.7812 5.72292 10.8892 7.08074 10.8892L7.64437 10.8256L8.40619 11.5886H10.1955V12.9875H11.5897V14.7841L11.8931 15.0871ZM8.15149 8.4562C8.15149 9.01629 7.69843 9.47085 7.14021 9.47085C6.58197 9.47085 6.12892 9.01629 6.12892 8.4562C6.12892 7.89611 6.58197 7.44156 7.14021 7.44156C7.69843 7.44156 8.15149 7.89611 8.15149 8.4562Z" fill="#303030"/>
</svg>
