<svg width="27" height="22" viewBox="0 0 27 22" fill="none" xmlns="http://www.w3.org/2000/svg">
<path d="M1.03125 1.03125V0C0.757746 0 0.495443 0.108649 0.302046 0.302046C0.108649 0.495443 0 0.757746 0 1.03125H1.03125ZM25.7812 1.03125H26.8125C26.8125 0.757746 26.7039 0.495443 26.5105 0.302046C26.3171 0.108649 26.0548 0 25.7812 0V1.03125ZM1.03125 2.0625H25.7812V0H1.03125V2.0625ZM24.75 1.03125V17.5312H26.8125V1.03125H24.75ZM23.0312 19.25H3.78125V21.3125H23.0312V19.25ZM2.0625 17.5312V1.03125H0V17.5312H2.0625ZM3.78125 19.25C2.8325 19.25 2.0625 18.48 2.0625 17.5312H0C0 18.5341 0.398381 19.4959 1.1075 20.205C1.81662 20.9141 2.7784 21.3125 3.78125 21.3125V19.25ZM24.75 17.5312C24.75 18.48 23.98 19.25 23.0312 19.25V21.3125C24.0341 21.3125 24.9959 20.9141 25.705 20.205C26.4141 19.4959 26.8125 18.5341 26.8125 17.5312H24.75Z" fill="#0E61CD"/>
<path d="M1.03125 1.03125L13.4062 13.4062L25.7812 1.03125" stroke="#0E61CD" stroke-width="0.75" stroke-linecap="round" stroke-linejoin="round"/>
</svg>
