<svg width="25" height="29" viewBox="0 0 25 29" fill="none" xmlns="http://www.w3.org/2000/svg">
<path d="M12.375 2.0625C10.187 2.0625 8.08854 2.93169 6.54137 4.47887C4.99419 6.02604 4.125 8.12446 4.125 10.3125C4.125 12.2568 5.22775 14.3646 6.79662 16.3405C8.34212 18.2875 10.219 19.9554 11.506 21.0004C11.7503 21.203 12.0576 21.3138 12.375 21.3138C12.6924 21.3138 12.9997 21.203 13.244 21.0004C14.531 19.9554 16.4079 18.2875 17.9534 16.3391C19.525 14.366 20.625 12.2581 20.625 10.3125C20.625 8.12446 19.7558 6.02604 18.2086 4.47887C16.6615 2.93169 14.563 2.0625 12.375 2.0625ZM2.0625 10.3125C2.0625 7.57746 3.14899 4.95443 5.08296 3.02046C7.01693 1.08649 9.63995 0 12.375 0C15.11 0 17.7331 1.08649 19.667 3.02046C21.601 4.95443 22.6875 7.57746 22.6875 10.3125C22.6875 12.969 21.2245 15.5375 19.569 17.622C17.8915 19.7354 15.8867 21.5119 14.5434 22.6022C13.2701 23.6335 11.4799 23.6335 10.2066 22.6022C8.86325 21.5119 6.8585 19.7354 5.181 17.622C3.5255 15.5389 2.0625 12.969 2.0625 10.3125ZM12.375 8.25C11.828 8.25 11.3034 8.4673 10.9166 8.85409C10.5298 9.24089 10.3125 9.76549 10.3125 10.3125C10.3125 10.8595 10.5298 11.3841 10.9166 11.7709C11.3034 12.1577 11.828 12.375 12.375 12.375C12.922 12.375 13.4466 12.1577 13.8334 11.7709C14.2202 11.3841 14.4375 10.8595 14.4375 10.3125C14.4375 9.76549 14.2202 9.24089 13.8334 8.85409C13.4466 8.4673 12.922 8.25 12.375 8.25ZM8.25 10.3125C8.25 9.21848 8.6846 8.16927 9.45818 7.39568C10.2318 6.6221 11.281 6.1875 12.375 6.1875C13.469 6.1875 14.5182 6.6221 15.2918 7.39568C16.0654 8.16927 16.5 9.21848 16.5 10.3125C16.5 11.4065 16.0654 12.4557 15.2918 13.2293C14.5182 14.0029 13.469 14.4375 12.375 14.4375C11.281 14.4375 10.2318 14.0029 9.45818 13.2293C8.6846 12.4557 8.25 11.4065 8.25 10.3125ZM20.1877 19.0382C19.6872 19.6336 19.1703 20.196 18.656 20.7212C19.1464 20.8587 19.6002 21.01 20.0173 21.175C20.9743 21.5504 21.6769 21.9725 22.1238 22.3905C22.5706 22.8057 22.6875 23.1385 22.6875 23.375C22.6875 23.6115 22.5706 23.9443 22.1238 24.3595C21.6769 24.7761 20.9743 25.1982 20.0186 25.575C18.1129 26.3258 15.4124 26.8125 12.375 26.8125C9.33762 26.8125 6.63713 26.3258 4.73137 25.575C3.77575 25.1982 3.07312 24.7761 2.62487 24.3595C2.17937 23.9443 2.0625 23.6115 2.0625 23.375C2.0625 23.1385 2.17937 22.8057 2.62625 22.3905C3.07312 21.9739 3.77575 21.5518 4.73137 21.175C5.15029 21.01 5.60404 20.8587 6.09263 20.7212C5.57975 20.196 5.06137 19.6336 4.56225 19.0382C4.3615 19.1088 4.16579 19.1812 3.97512 19.2555C2.87787 19.6873 1.92088 20.2276 1.21963 20.8808C0.518375 21.5353 0 22.3767 0 23.375C0 24.3733 0.517 25.2147 1.21963 25.8692C1.92088 26.521 2.87787 27.0614 3.97512 27.4945C6.1765 28.3608 9.1465 28.875 12.375 28.875C15.6035 28.875 18.5735 28.3608 20.7735 27.4945C21.8721 27.0614 22.8291 26.521 23.5304 25.8692C24.2316 25.2147 24.75 24.3733 24.75 23.375C24.75 22.3767 24.233 21.5353 23.5304 20.8808C22.8291 20.2276 21.8721 19.6873 20.7735 19.2555C20.5837 19.1803 20.3885 19.1079 20.1877 19.0382Z" fill="#0E61CD"/>
</svg>
