<svg width="27" height="27" viewBox="0 0 27 27" fill="none" xmlns="http://www.w3.org/2000/svg">
<path d="M7.42061 0.230104C5.70461 -0.205496 3.90611 -0.0206959 2.49701 0.768004C1.06151 1.5699 0.0550077 2.9922 0.00550771 4.89465C-0.0703923 7.86795 0.617658 11.8577 3.35006 16.5404C6.04781 21.1653 9.02606 23.9373 11.4978 25.584C13.0587 26.6252 14.7829 26.6532 16.2564 25.9751C17.7084 25.3068 18.8865 23.972 19.4986 22.317C19.6507 21.9054 19.7118 21.4656 19.6776 21.0281C19.6435 20.5906 19.5148 20.1656 19.3006 19.7826L17.7265 16.9743C17.2426 16.11 16.4639 15.4486 15.5326 15.1111C14.6013 14.7736 13.5797 14.7825 12.6544 15.1362L11.5555 15.557C11.0226 15.7599 10.5325 15.6659 10.2553 15.392C9.32306 14.4762 8.65646 13.2338 8.35451 11.894C8.25881 11.4716 8.45351 10.9733 8.91881 10.6218L9.91046 9.8727C10.7121 9.26775 11.2656 8.39111 11.467 7.40718C11.6684 6.42325 11.5039 5.39965 11.0044 4.52835L9.40061 1.7316C9.18806 1.36139 8.90325 1.0377 8.56311 0.779756C8.22296 0.521814 7.83443 0.334893 7.42061 0.230104ZM1.65551 4.9392C1.68851 3.6621 2.33531 2.74965 3.30221 2.20845C4.29551 1.6524 5.65181 1.48245 7.01471 1.82895C7.21441 1.87939 7.40192 1.96952 7.56605 2.09397C7.73018 2.21841 7.86758 2.37463 7.97006 2.5533L9.57221 5.35005C9.87187 5.87262 9.97066 6.48653 9.85007 7.07673C9.72948 7.66692 9.39779 8.19287 8.91716 8.556L7.92551 9.3051C7.06751 9.9519 6.47351 11.0607 6.74411 12.257C7.11041 13.8773 7.92056 15.4134 9.09866 16.5701C9.95996 17.4149 11.1876 17.4644 12.1446 17.0981L13.2435 16.6773C13.7987 16.4648 14.4118 16.4592 14.9708 16.6616C15.5298 16.864 15.9972 17.2608 16.2877 17.7795L17.8602 20.5895C18.0582 20.9426 18.0912 21.365 17.9509 21.7445C17.4724 23.0397 16.5732 24.0116 15.5667 24.4752C14.5816 24.929 13.4679 24.9158 12.4135 24.2112C10.1514 22.7031 7.34801 20.1176 4.77401 15.7088C2.19836 11.2868 1.58786 7.60065 1.65716 4.9392M17.6655 0.141004C17.5708 0.0883507 17.4666 0.0548633 17.359 0.042454C17.2514 0.0300446 17.1424 0.0389565 17.0382 0.0686805C16.934 0.0984046 16.8367 0.148358 16.7518 0.215691C16.6669 0.283023 16.5961 0.366415 16.5435 0.461104C16.4908 0.555794 16.4573 0.659927 16.4449 0.767559C16.4325 0.87519 16.4414 0.984212 16.4711 1.0884C16.5009 1.19259 16.5508 1.2899 16.6181 1.37478C16.6855 1.45966 16.7689 1.53045 16.8636 1.5831L17.4972 1.9362C19.4765 3.03577 21.1602 4.59823 22.4044 6.49005C23.6486 8.38187 24.4162 10.5468 24.6417 12.7998L24.6945 13.3196C24.7007 13.4308 24.7294 13.5396 24.7788 13.6395C24.8283 13.7393 24.8974 13.8281 24.9821 13.9005C25.0668 13.9729 25.1653 14.0274 25.2716 14.0607C25.3779 14.094 25.4899 14.1054 25.6007 14.0943C25.7116 14.0831 25.8191 14.0496 25.9166 13.9958C26.0142 13.942 26.0998 13.869 26.1684 13.7812C26.237 13.6934 26.2871 13.5926 26.3156 13.4849C26.3442 13.3772 26.3506 13.2648 26.3346 13.1546L26.2834 12.6365C26.0317 10.1179 25.1737 7.69773 23.783 5.5829C22.3923 3.46808 20.5101 1.72149 18.2974 0.492454L17.6655 0.141004ZM15.7317 4.563C15.8444 4.37552 16.0269 4.24047 16.2392 4.18756C16.4514 4.13465 16.676 4.16821 16.8636 4.28085L17.0682 4.40295C18.3997 5.20165 19.542 6.27996 20.416 7.56335C21.29 8.84674 21.875 10.3046 22.1304 11.8362L22.203 12.2768C22.2237 12.3848 22.2227 12.4959 22.1999 12.6035C22.177 12.7111 22.1329 12.8131 22.0701 12.9034C22.0073 12.9937 21.9271 13.0706 21.8342 13.1295C21.7412 13.1883 21.6375 13.228 21.5289 13.2461C21.4204 13.2643 21.3094 13.2606 21.2024 13.2352C21.0953 13.2098 20.9944 13.1632 20.9057 13.0983C20.8169 13.0333 20.742 12.9513 20.6854 12.8569C20.6288 12.7626 20.5916 12.6579 20.5761 12.549L20.5018 12.1085C20.2859 10.8126 19.7912 9.5791 19.052 8.49314C18.3127 7.40718 17.3465 6.49466 16.2201 5.81865L16.0155 5.6949C15.9225 5.63923 15.8414 5.56579 15.7768 5.47877C15.7122 5.39175 15.6654 5.29286 15.6391 5.18775C15.6127 5.08263 15.6073 4.97336 15.6232 4.86616C15.6391 4.75897 15.676 4.65596 15.7317 4.563Z" fill="#0E61CD"/>
</svg>
