<svg width="38" height="38" viewBox="0 0 38 38" fill="none" xmlns="http://www.w3.org/2000/svg">
<path d="M25.2132 27.7154L28.3304 13.0201C28.4576 12.3981 28.3834 11.9528 28.1077 11.6842C27.832 11.4156 27.468 11.3661 27.0156 11.5357L8.6942 18.5971C8.28423 18.7526 8.00502 18.9293 7.85658 19.1272C7.70815 19.3251 7.69048 19.5125 7.80357 19.6892C7.91667 19.8659 8.14286 20.0037 8.48214 20.1027L13.1685 21.5658L24.0469 14.7165C24.3438 14.5186 24.5699 14.4762 24.7254 14.5893C24.8244 14.66 24.7961 14.766 24.6406 14.9074L15.8404 22.8594L15.5011 27.6942C15.8263 27.6942 16.1443 27.5387 16.4554 27.2277L18.7455 25.0223L23.4955 28.5212C24.4003 29.0301 24.9728 28.7615 25.2132 27.7154ZM38 19C38 21.5729 37.4981 24.0327 36.4944 26.3795C35.4907 28.7262 34.1406 30.7478 32.4442 32.4442C30.7478 34.1406 28.7262 35.4907 26.3795 36.4944C24.0327 37.4981 21.5729 38 19 38C16.4271 38 13.9673 37.4981 11.6205 36.4944C9.27381 35.4907 7.25223 34.1406 5.5558 32.4442C3.85937 30.7478 2.5093 28.7262 1.50558 26.3795C0.50186 24.0327 0 21.5729 0 19C0 16.4271 0.50186 13.9673 1.50558 11.6205C2.5093 9.27381 3.85937 7.25223 5.5558 5.5558C7.25223 3.85937 9.27381 2.5093 11.6205 1.50558C13.9673 0.50186 16.4271 0 19 0C21.5729 0 24.0327 0.50186 26.3795 1.50558C28.7262 2.5093 30.7478 3.85937 32.4442 5.5558C34.1406 7.25223 35.4907 9.27381 36.4944 11.6205C37.4981 13.9673 38 16.4271 38 19Z" fill="#00B3FF"/>
</svg>
