<svg width="21" height="19" viewBox="0 0 21 19" fill="none" xmlns="http://www.w3.org/2000/svg">
<path d="M5.42811 1.20735C5.06016 0.395596 4.67294 0.379216 4.32303 0.36498C4.03651 0.352735 3.70896 0.353653 3.38173 0.353653C3.05418 0.353653 2.522 0.47596 2.07217 0.963503C1.62187 1.4515 0.353027 2.63079 0.353027 5.02932C0.353027 7.42784 2.11304 9.746 2.35839 10.0716C2.60404 10.3966 5.75611 15.4762 10.7482 17.4303C14.8971 19.0543 15.7414 18.7313 16.6419 18.6499C17.5424 18.5688 19.5478 17.4709 19.9569 16.3325C20.3664 15.1942 20.3664 14.2185 20.2436 14.0146C20.1208 13.8115 19.7933 13.6895 19.3021 13.4458C18.811 13.2021 16.3962 12.0225 15.9461 11.8598C15.4958 11.6972 15.1684 11.6161 14.8408 12.1043C14.5133 12.5917 13.5727 13.6895 13.2861 14.0146C12.9997 14.3405 12.713 14.3811 12.222 14.1373C11.7305 13.8926 10.1488 13.3785 8.27222 11.7178C6.81215 10.4255 5.82643 8.8297 5.53991 8.34154C5.25338 7.85415 5.50922 7.58995 5.7555 7.34702C5.97617 7.12858 6.24681 6.77773 6.49262 6.49317C6.73751 6.20845 6.81924 6.00532 6.98301 5.68019C7.14694 5.35475 7.0649 5.07003 6.9423 4.82619C6.81924 4.58234 5.86483 2.17126 5.42811 1.20735Z" fill="white"/>
</svg>
